<mxfile host="app.diagrams.net" agent="Mozilla/5.0 (Windows NT 10.0; Win64; x64) AppleWebKit/537.36 (KHTML, like Gecko) Chrome/131.0.0.0 Safari/537.36" version="25.0.1">
  <diagram name="Page-1" id="3Uuw2enAfau52pqny400">
    <mxGraphModel dx="1195" dy="653" grid="1" gridSize="10" guides="1" tooltips="1" connect="1" arrows="1" fold="1" page="1" pageScale="1" pageWidth="850" pageHeight="1100" math="0" shadow="0">
      <root>
        <mxCell id="0" />
        <mxCell id="1" parent="0" />
        <mxCell id="zX0ZSAIa2gsDSJXJ3A8z-1" value="" style="rounded=1;whiteSpace=wrap;html=1;fillColor=#fff2cc;strokeColor=#d6b656;" vertex="1" parent="1">
          <mxGeometry x="80" y="50" width="640" height="190" as="geometry" />
        </mxCell>
        <mxCell id="zX0ZSAIa2gsDSJXJ3A8z-2" value="&lt;font style=&quot;font-size: 14px;&quot;&gt;Main Thread: Audio/MIDI capture and general purpose processing&lt;/font&gt;" style="rounded=1;whiteSpace=wrap;html=1;align=center;fillColor=#dae8fc;strokeColor=#6c8ebf;" vertex="1" parent="1">
          <mxGeometry x="180" y="70" width="530" height="30" as="geometry" />
        </mxCell>
        <mxCell id="zX0ZSAIa2gsDSJXJ3A8z-3" value="&lt;font style=&quot;font-size: 14px;&quot;&gt;Thread 1: Sampling/ feature extraction&lt;/font&gt;" style="rounded=1;whiteSpace=wrap;html=1;align=center;fillColor=#dae8fc;strokeColor=#6c8ebf;" vertex="1" parent="1">
          <mxGeometry x="180" y="110" width="530" height="30" as="geometry" />
        </mxCell>
        <mxCell id="zX0ZSAIa2gsDSJXJ3A8z-5" value="&lt;font style=&quot;font-size: 14px;&quot;&gt;Thread 2: Inference&lt;/font&gt;" style="rounded=1;whiteSpace=wrap;html=1;align=center;fillColor=#dae8fc;strokeColor=#6c8ebf;" vertex="1" parent="1">
          <mxGeometry x="180" y="150" width="530" height="30" as="geometry" />
        </mxCell>
        <mxCell id="zX0ZSAIa2gsDSJXJ3A8z-6" value="&lt;font style=&quot;font-size: 14px;&quot;&gt;CPU&lt;/font&gt;" style="text;html=1;align=center;verticalAlign=middle;whiteSpace=wrap;rounded=0;" vertex="1" parent="1">
          <mxGeometry x="90" y="125" width="60" height="30" as="geometry" />
        </mxCell>
        <mxCell id="zX0ZSAIa2gsDSJXJ3A8z-8" value="" style="endArrow=none;dashed=1;html=1;dashPattern=1 3;strokeWidth=4;rounded=0;" edge="1" parent="1">
          <mxGeometry width="50" height="50" relative="1" as="geometry">
            <mxPoint x="444.83" y="190" as="sourcePoint" />
            <mxPoint x="444.83" y="230" as="targetPoint" />
          </mxGeometry>
        </mxCell>
      </root>
    </mxGraphModel>
  </diagram>
</mxfile>
